<?xml version="1.0" encoding="UTF-8" standalone="no"?>
<svg width="18px" height="18px" viewBox="0 0 18 18" version="1.1" xmlns="http://www.w3.org/2000/svg" xmlns:xlink="http://www.w3.org/1999/xlink" xmlns:sketch="http://www.bohemiancoding.com/sketch/ns">
    <!-- Generator: Sketch 3.4.4 (17249) - http://www.bohemiancoding.com/sketch -->
    <title>Page 1 + Oval 97</title>
    <desc>Created with Sketch.</desc>
    <defs>
        <path id="path-1" d="M0,0.0221917808 L17.992445,0.0221917808 L17.992445,18 L0,18"></path>
        <path id="path-3" d="M0,0.0221917808 L17.992445,0.0221917808 L17.992445,18 L0,18"></path>
        <path id="path-5" d="M0.0354633028,3.35473973 C0.0354633028,5.19184932 1.53156881,6.68124658 3.37727064,6.68124658 L3.37727064,6.68124658 C5.22260092,6.68124658 6.71883028,5.19184932 6.71883028,3.35473973 L6.71883028,3.35473973 C6.71883028,1.51767123 5.22260092,0.0283972603 3.37727064,0.0283972603 L3.37727064,0.0283972603 C1.53156881,0.0283972603 0.0354633028,1.51767123 0.0354633028,3.35473973"></path>
        <radialGradient cx="53.1560071%" cy="10.7861086%" fx="53.1560071%" fy="10.7861086%" r="103.495074%" id="radialGradient-7">
            <stop stop-color="#87B5DF" offset="0%"></stop>
            <stop stop-color="#1B71B5" offset="100%"></stop>
        </radialGradient>
    </defs>
    <g id="Page-1" stroke="none" stroke-width="1" fill="none" fill-rule="evenodd" sketch:type="MSPage">
        <g id="Chrome" sketch:type="MSArtboardGroup">
            <g id="Page-1-+-Oval-97" sketch:type="MSLayerGroup">
                <g id="Page-1">
                    <g id="Group-13">
                        <g id="Group-3">
                            <mask id="mask-2" sketch:name="Clip 2" fill="white">
                                <use xlink:href="#path-1"></use>
                            </mask>
                            <g id="Clip-2"></g>
                            <path d="M8.97280596,0.0237780822 C8.97280596,0.0237780822 14.2769436,-0.213879452 17.0880812,5.09242192 L8.52177385,5.09242192 C8.52177385,5.09242192 6.90400321,5.03944932 5.52485642,6.99335342 C5.12716376,7.81177808 4.70288394,8.6565863 5.18021422,10.3195315 C4.49064083,9.15816164 1.52026927,4.01007945 1.52026927,4.01007945 C1.52026927,4.01007945 3.61561789,0.234887671 8.97280596,0.0237780822" id="Fill-1" fill="#E63129" sketch:type="MSShapeGroup" mask="url(#mask-2)"></path>
                        </g>
                        <path d="M16.8119628,13.4962685 C16.8119628,13.4962685 14.3659858,18.1870767 8.34378853,17.9565288 C9.08670138,16.6765151 12.6279537,10.5724192 12.6279537,10.5724192 C12.6279537,10.5724192 13.4829124,9.20433699 12.4733849,7.03854247 C11.9601784,6.28628219 11.4375592,5.49798082 9.75195826,5.07769315 C11.1075729,5.06433699 17.0710638,5.07855616 17.0710638,5.07855616 C17.0710638,5.07855616 19.3073573,8.77270685 16.8119628,13.4962685" id="Fill-4" fill="#FED900" sketch:type="MSShapeGroup"></path>
                        <g id="Group-8">
                            <mask id="mask-4" sketch:name="Clip 7" fill="white">
                                <use xlink:href="#path-3"></use>
                            </mask>
                            <g id="Clip-7"></g>
                            <path d="M1.17134587,13.5319438 C1.17134587,13.5319438 -1.6864844,9.07739589 1.52556606,4.00147808 C2.26781835,5.28202603 5.80717156,11.3872315 5.80717156,11.3872315 C5.80717156,11.3872315 6.56965321,12.8082863 8.95886422,13.0210397 C9.86959817,12.9549164 10.8169514,12.8984918 12.0254697,11.6557521 C11.3591807,12.8308068 8.3646578,17.9647932 8.3646578,17.9647932 C8.3646578,17.9647932 4.03272661,18.0451767 1.17134587,13.5319438" id="Fill-6" fill="#65B44B" sketch:type="MSShapeGroup" mask="url(#mask-4)"></path>
                        </g>
                        <path d="M8.3437844,18 L9.54871101,12.9948493 C9.54871101,12.9948493 10.8735688,12.8919041 11.983789,11.6790822 C11.2946284,12.885863 8.3437844,18 8.3437844,18" id="Fill-9" fill="#60AB48" sketch:type="MSShapeGroup"></path>
                        <path d="M4.93721422,9.06708082 C4.93721422,6.86064247 6.73391147,5.07194384 8.95067752,5.07194384 C11.1672372,5.07194384 12.9640995,6.86064247 12.9640995,9.06708082 C12.9640995,11.2736836 11.1672372,13.0623411 8.95067752,13.0623411 C6.73391147,13.0623411 4.93721422,11.2736836 4.93721422,9.06708082" id="Fill-11" fill="#FEFEFE" sketch:type="MSShapeGroup"></path>
                    </g>
                    <g id="Group-16" transform="translate(5.573394, 5.712329)">
                        <mask id="mask-6" sketch:name="Clip 15" fill="white">
                            <use xlink:href="#path-5"></use>
                        </mask>
                        <g id="Clip-15"></g>
                        <path d="M0.0354633028,3.35473973 C0.0354633028,5.19184932 1.53156881,6.68124658 3.37727064,6.68124658 L3.37727064,6.68124658 C5.22260092,6.68124658 6.71883028,5.19184932 6.71883028,3.35473973 L6.71883028,3.35473973 C6.71883028,1.51767123 5.22260092,0.0283972603 3.37727064,0.0283972603 L3.37727064,0.0283972603 C1.53156881,0.0283972603 0.0354633028,1.51767123 0.0354633028,3.35473973" id="Fill-14" sketch:type="MSShapeGroup" mask="url(#mask-6)"></path>
                    </g>
                    <g id="Group-21" transform="translate(1.486239, 3.986301)" sketch:type="MSShapeGroup">
                        <path d="M15.5848417,1.09225068 L10.6231995,2.54034658 C10.6231995,2.54034658 9.87500229,1.44740137 8.26573624,1.09138767 C9.66007569,1.08666164 15.5848417,1.09225068 15.5848417,1.09225068" id="Fill-17" fill="#F0CE00"></path>
                        <path d="M3.59740734,6.15354658 C2.90011376,4.95149178 0.0341504587,0.0236835616 0.0341504587,0.0236835616 L3.70970092,3.64299863 C3.70970092,3.64299863 3.33194862,4.41642329 3.4752055,5.52108082 L3.59740734,6.15354658 Z" id="Fill-19" fill="#D93027"></path>
                    </g>
                </g>
                <circle id="Oval-97" fill="url(#radialGradient-7)" sketch:type="MSShapeGroup" cx="9" cy="9.0412844" r="3.3853211"></circle>
            </g>
        </g>
    </g>
</svg>